<svg width="32" height="32" viewBox="0 0 32 32" fill="none" xmlns="http://www.w3.org/2000/svg">
<g id="angle-small-left 1">
<path id="Vector" d="M16.9466 17.8667C16.8226 17.9916 16.6752 18.0908 16.5127 18.1585C16.3502 18.2262 16.1759 18.2611 15.9999 18.2611C15.8239 18.2611 15.6496 18.2262 15.4871 18.1585C15.3247 18.0908 15.1772 17.9916 15.0533 17.8667L8.94658 11.7467C8.82263 11.6217 8.67517 11.5225 8.51269 11.4548C8.35021 11.3871 8.17593 11.3523 7.99992 11.3523C7.8239 11.3523 7.64963 11.3871 7.48715 11.4548C7.32467 11.5225 7.1772 11.6217 7.05325 11.7467C6.80492 11.9965 6.66553 12.3344 6.66553 12.6867C6.66553 13.0389 6.80492 13.3768 7.05325 13.6267L13.1733 19.7467C13.9233 20.4957 14.9399 20.9165 15.9999 20.9165C17.0599 20.9165 18.0766 20.4957 18.8266 19.7467L24.9466 13.6267C25.1929 13.3783 25.3318 13.0431 25.3333 12.6933C25.3343 12.5179 25.3006 12.3439 25.2343 12.1814C25.1679 12.019 25.0702 11.8712 24.9466 11.7467C24.8226 11.6217 24.6752 11.5225 24.5127 11.4548C24.3502 11.3871 24.1759 11.3523 23.9999 11.3523C23.8239 11.3523 23.6496 11.3871 23.4872 11.4548C23.3247 11.5225 23.1772 11.6217 23.0533 11.7467L16.9466 17.8667Z" fill="black"/>
</g>
</svg>
