<svg width="32" height="32" viewBox="0 0 32 32" fill="none" xmlns="http://www.w3.org/2000/svg">
<path d="M14.5331 6.66669C14.7968 6.66779 15.0542 6.74707 15.2729 6.89448C15.4915 7.0419 15.6616 7.25084 15.7615 7.49488C15.8614 7.73893 15.8866 8.00711 15.8341 8.26553C15.7816 8.52395 15.6537 8.76099 15.4664 8.94669L9.3331 15.0534C9.20812 15.1773 9.10893 15.3248 9.04124 15.4873C8.97355 15.6497 8.9387 15.824 8.9387 16C8.9387 16.176 8.97355 16.3503 9.04124 16.5128C9.10893 16.6753 9.20812 16.8227 9.3331 16.9467L15.4664 23.0534C15.5914 23.1773 15.6906 23.3248 15.7583 23.4873C15.826 23.6497 15.8608 23.824 15.8608 24C15.8608 24.176 15.826 24.3503 15.7583 24.5128C15.6906 24.6753 15.5914 24.8227 15.4664 24.9467C15.2166 25.195 14.8787 25.3344 14.5264 25.3344C14.1742 25.3344 13.8362 25.195 13.5864 24.9467L7.46643 18.8267C6.71736 18.0767 6.29661 17.06 6.29661 16C6.29661 14.94 6.71736 13.9234 7.46643 13.1734L13.5864 7.05336C13.711 6.92978 13.8588 6.83201 14.0212 6.76566C14.1837 6.69931 14.3576 6.66567 14.5331 6.66669Z" fill="black"/>
<path d="M23.8666 6.66669C24.1303 6.66779 24.3877 6.74707 24.6064 6.89448C24.825 7.0419 24.995 7.25084 25.0949 7.49488C25.1949 7.73893 25.2201 8.00711 25.1676 8.26553C25.1151 8.52395 24.9872 8.76099 24.7999 8.94669L17.7466 16L24.7999 23.0534C24.9249 23.1773 25.0241 23.3248 25.0918 23.4873C25.1595 23.6497 25.1943 23.824 25.1943 24C25.1943 24.176 25.1595 24.3503 25.0918 24.5128C25.0241 24.6753 24.9249 24.8227 24.7999 24.9467C24.5501 25.195 24.2122 25.3344 23.8599 25.3344C23.5077 25.3344 23.1697 25.195 22.9199 24.9467L14.9199 16.9467C14.795 16.8227 14.6958 16.6753 14.6281 16.5128C14.5604 16.3503 14.5255 16.176 14.5255 16C14.5255 15.824 14.5604 15.6497 14.6281 15.4873C14.6958 15.3248 14.795 15.1773 14.9199 15.0534L22.9199 7.05336C23.0445 6.92978 23.1923 6.83201 23.3547 6.76566C23.5172 6.69931 23.6911 6.66567 23.8666 6.66669Z" fill="black"/>
</svg>
