<svg width="32" height="32" viewBox="0 0 32 32" fill="none" xmlns="http://www.w3.org/2000/svg">
<path d="M17.4669 25.3333C17.2032 25.3322 16.9458 25.2529 16.7271 25.1055C16.5085 24.9581 16.3384 24.7492 16.2385 24.5051C16.1386 24.2611 16.1134 23.9929 16.1659 23.7345C16.2184 23.4761 16.3463 23.239 16.5336 23.0533L22.6669 16.9466C22.7919 16.8227 22.8911 16.6752 22.9588 16.5127C23.0265 16.3503 23.0613 16.176 23.0613 16C23.0613 15.824 23.0265 15.6497 22.9588 15.4872C22.8911 15.3247 22.7919 15.1773 22.6669 15.0533L16.5336 8.94665C16.4086 8.82269 16.3094 8.67523 16.2417 8.51275C16.174 8.35027 16.1392 8.17599 16.1392 7.99998C16.1392 7.82396 16.174 7.64969 16.2417 7.48721C16.3094 7.32473 16.4086 7.17726 16.5336 7.05331C16.7834 6.80498 17.1213 6.66559 17.4736 6.66559C17.8258 6.66559 18.1638 6.80498 18.4136 7.05331L24.5336 13.1733C25.2826 13.9233 25.7034 14.94 25.7034 16C25.7034 17.06 25.2826 18.0766 24.5336 18.8266L18.4136 24.9466C18.289 25.0702 18.1412 25.168 17.9788 25.2343C17.8163 25.3007 17.6424 25.3343 17.4669 25.3333Z" fill="black"/>
<path d="M8.13341 25.3333C7.86971 25.3322 7.61226 25.2529 7.39362 25.1055C7.17497 24.9581 7.00495 24.7492 6.90505 24.5051C6.80515 24.2611 6.77986 23.9929 6.83237 23.7345C6.88488 23.4761 7.01285 23.239 7.20007 23.0533L14.2534 16L7.20007 8.94665C7.0751 8.82269 6.97591 8.67523 6.90822 8.51275C6.84053 8.35027 6.80568 8.17599 6.80568 7.99998C6.80568 7.82396 6.84053 7.64969 6.90822 7.48721C6.97591 7.32473 7.0751 7.17726 7.20007 7.05331C7.44989 6.80498 7.78783 6.66559 8.14007 6.66559C8.49232 6.66559 8.83026 6.80498 9.08007 7.05331L17.0801 15.0533C17.205 15.1773 17.3042 15.3247 17.3719 15.4872C17.4396 15.6497 17.4745 15.824 17.4745 16C17.4745 16.176 17.4396 16.3503 17.3719 16.5127C17.3042 16.6752 17.205 16.8227 17.0801 16.9466L9.08007 24.9466C8.95549 25.0702 8.80773 25.168 8.64528 25.2343C8.48283 25.3007 8.30888 25.3343 8.13341 25.3333Z" fill="black"/>
</svg>
