<svg width="32" height="32" viewBox="0 0 32 32" fill="none" xmlns="http://www.w3.org/2000/svg">
<path d="M20.5336 13.1733L14.4136 7.05331C14.1637 6.80498 13.8258 6.66559 13.4736 6.66559C13.1213 6.66559 12.7834 6.80498 12.5336 7.05331C12.4086 7.17726 12.3094 7.32473 12.2417 7.48721C12.174 7.64969 12.1392 7.82396 12.1392 7.99998C12.1392 8.17599 12.174 8.35027 12.2417 8.51275C12.3094 8.67523 12.4086 8.82269 12.5336 8.94665L18.6669 15.0533C18.7919 15.1773 18.8911 15.3247 18.9587 15.4872C19.0264 15.6497 19.0613 15.824 19.0613 16C19.0613 16.176 19.0264 16.3503 18.9587 16.5127C18.8911 16.6752 18.7919 16.8227 18.6669 16.9466L12.5336 23.0533C12.2825 23.3026 12.1407 23.6414 12.1395 23.9953C12.1382 24.3491 12.2776 24.6889 12.5269 24.94C12.7762 25.1911 13.115 25.3328 13.4688 25.3341C13.8227 25.3353 14.1625 25.1959 14.4136 24.9466L20.5336 18.8266C21.2826 18.0766 21.7034 17.06 21.7034 16C21.7034 14.94 21.2826 13.9233 20.5336 13.1733Z" fill="black"/>
</svg>
