<svg width="40" height="41" viewBox="0 0 40 41" fill="none" xmlns="http://www.w3.org/2000/svg">
<path d="M29.1667 19.1283C23.1933 19.1283 18.3333 23.9883 18.3333 29.9616C18.3333 35.9 23.1933 40.73 29.1667 40.73C35.14 40.73 40 35.87 40 29.8966C40 23.9583 35.14 19.1283 29.1667 19.1283ZM29.1667 39.0633C24.1133 39.0633 20 34.98 20 29.9616C20 24.9066 24.1133 20.795 29.1667 20.795C34.22 20.795 38.3333 24.8783 38.3333 29.8966C38.3333 34.9516 34.22 39.0633 29.1667 39.0633ZM31.4233 30.9733C31.7483 31.2983 31.7483 31.8266 31.4233 32.1516C31.26 32.315 31.0467 32.395 30.8333 32.395C30.62 32.395 30.4067 32.3133 30.2433 32.1516L28.5767 30.485C28.42 30.3283 28.3333 30.1166 28.3333 29.895V26.5616C28.3333 26.1016 28.7067 25.7283 29.1667 25.7283C29.6267 25.7283 30 26.1016 30 26.5616V29.55L31.4233 30.9733ZM32.5 4.06331H30V1.56331C30 1.10331 29.6267 0.72998 29.1667 0.72998C28.7067 0.72998 28.3333 1.10331 28.3333 1.56331V4.06331H11.6667V1.56331C11.6667 1.10331 11.2933 0.72998 10.8333 0.72998C10.3733 0.72998 10 1.10331 10 1.56331V4.06331H7.5C3.365 4.06331 0 7.42831 0 11.5633V33.23C0 37.365 3.365 40.73 7.5 40.73H17.5C17.96 40.73 18.3333 40.3566 18.3333 39.8966C18.3333 39.4366 17.96 39.0633 17.5 39.0633H7.5C4.28333 39.0633 1.66667 36.4466 1.66667 33.23V15.73H38.3333V18.23C38.3333 18.69 38.7067 19.0633 39.1667 19.0633C39.6267 19.0633 40 18.69 40 18.23V11.5633C40 7.42831 36.635 4.06331 32.5 4.06331ZM1.66667 14.0633V11.5633C1.66667 8.34665 4.28333 5.72998 7.5 5.72998H32.5C35.7167 5.72998 38.3333 8.34665 38.3333 11.5633V14.0633H1.66667Z" fill="black"/>
</svg>
