<svg width="18" height="18" viewBox="0 0 18 18" fill="none" xmlns="http://www.w3.org/2000/svg">
<g clip-path="url(#clip0_161_2057)">
<path d="M14.625 1.5H13.5V0.375C13.5 0.165 13.335 0 13.125 0C12.915 0 12.75 0.165 12.75 0.375V1.5H5.25V0.375C5.25 0.165 5.085 0 4.875 0C4.665 0 4.5 0.165 4.5 0.375V1.5H3.375C1.515 1.5 0 3.015 0 4.875V14.625C0 16.485 1.515 18 3.375 18H14.625C16.485 18 18 16.485 18 14.625V4.875C18 3.015 16.485 1.5 14.625 1.5ZM8.625 6.75V9.75H5.25V6.75H8.625ZM12.75 6.75V9.75H9.375V6.75H12.75ZM17.25 6.75V9.75H13.5V6.75H17.25ZM4.5 9.75H0.75V6.75H4.5V9.75ZM0.75 10.5H4.5V13.5H0.75V10.5ZM5.25 10.5H8.625V13.5H5.25V10.5ZM8.625 14.25V17.25H5.25V14.25H8.625ZM9.375 14.25H12.75V17.25H9.375V14.25ZM9.375 13.5V10.5H12.75V13.5H9.375ZM13.5 10.5H17.25V13.5H13.5V10.5ZM3.375 2.25H14.625C16.0725 2.25 17.25 3.4275 17.25 4.875V6H0.75V4.875C0.75 3.4275 1.9275 2.25 3.375 2.25ZM0.75 14.625V14.25H4.5V17.25H3.375C1.9275 17.25 0.75 16.0725 0.75 14.625ZM14.625 17.25H13.5V14.25H17.25V14.625C17.25 16.0725 16.0725 17.25 14.625 17.25Z" fill="black"/>
</g>
<defs>
<clipPath id="clip0_161_2057">
<rect width="18" height="18" fill="white"/>
</clipPath>
</defs>
</svg>
