<svg width="32" height="32" viewBox="0 0 32 32" fill="none" xmlns="http://www.w3.org/2000/svg">
<g clip-path="url(#clip0_104_9)">
<path d="M15.9997 5.33333C17.4724 5.33333 18.6663 4.13943 18.6663 2.66667C18.6663 1.19391 17.4724 0 15.9997 0C14.5269 0 13.333 1.19391 13.333 2.66667C13.333 4.13943 14.5269 5.33333 15.9997 5.33333Z" fill="black"/>
<path d="M15.9997 18.6667C17.4724 18.6667 18.6663 17.4728 18.6663 16C18.6663 14.5272 17.4724 13.3333 15.9997 13.3333C14.5269 13.3333 13.333 14.5272 13.333 16C13.333 17.4728 14.5269 18.6667 15.9997 18.6667Z" fill="black"/>
<path d="M15.9997 32C17.4724 32 18.6663 30.8061 18.6663 29.3333C18.6663 27.8606 17.4724 26.6667 15.9997 26.6667C14.5269 26.6667 13.333 27.8606 13.333 29.3333C13.333 30.8061 14.5269 32 15.9997 32Z" fill="black"/>
</g>
<defs>
<clipPath id="clip0_104_9">
<rect width="32" height="32" fill="white"/>
</clipPath>
</defs>
</svg>
