<svg width="40" height="39" viewBox="0 0 40 39" fill="none" xmlns="http://www.w3.org/2000/svg">
<g clip-path="url(#clip0_77_1367)">
<path d="M38.4083 13.3498L35 10.826V3.87178H33.3333V9.59002L22.575 1.62124C21.0583 0.498324 18.9383 0.498324 17.425 1.62124L1.59167 13.3498C0.58 14.099 0 15.2235 0 16.4359V38.4231H13.3333V23.5032C13.3333 22.2044 14.455 21.1474 15.8333 21.1474H24.1667C25.545 21.1474 26.6667 22.2044 26.6667 23.5032V38.4231H40V16.4359C40 15.2235 39.42 14.0974 38.4083 13.3498ZM38.3333 36.8526H28.3333V23.5032C28.3333 21.339 26.465 19.5769 24.1667 19.5769H15.8333C13.535 19.5769 11.6667 21.339 11.6667 23.5032V36.8526H1.66667V16.4359C1.66667 15.7087 2.015 15.0334 2.62 14.5843L18.4533 2.85566C19.365 2.18191 20.635 2.18191 21.545 2.85566L37.3783 14.5843C37.9833 15.0334 38.3317 15.7087 38.3317 16.4359L38.3333 36.8526Z" fill="black"/>
</g>
<defs>
<clipPath id="clip0_77_1367">
<rect width="40" height="37.6923" fill="white" transform="translate(0 0.730774)"/>
</clipPath>
</defs>
</svg>
