<svg width="32" height="32" viewBox="0 0 32 32" fill="none" xmlns="http://www.w3.org/2000/svg">
<g clip-path="url(#clip0_72_488)">
<path d="M30.3508 13.6427L23.7508 7.04266L21.8668 8.93333L27.6001 14.6667H8.82275V17.3333H27.6001L21.8668 23.0667L23.7521 24.952L30.3521 18.352C30.6617 18.0425 30.9073 17.675 31.0749 17.2705C31.2425 16.866 31.3287 16.4325 31.3287 15.9947C31.3287 15.5569 31.2425 15.1233 31.0749 14.7188C30.9073 14.3144 30.6617 13.9469 30.3521 13.6373L30.3508 13.6427Z" fill="black"/>
<path d="M13.968 28C13.968 28.3536 13.8275 28.6928 13.5775 28.9428C13.3274 29.1929 12.9883 29.3333 12.6347 29.3333H4C3.64638 29.3333 3.30724 29.1929 3.05719 28.9428C2.80714 28.6928 2.66667 28.3536 2.66667 28V4C2.66667 3.64638 2.80714 3.30724 3.05719 3.05719C3.30724 2.80714 3.64638 2.66667 4 2.66667H12.6347C12.9883 2.66667 13.3274 2.80714 13.5775 3.05719C13.8275 3.30724 13.968 3.64638 13.968 4V11.1107H16.6347V4C16.6347 2.93913 16.2132 1.92172 15.4631 1.17157C14.7129 0.421427 13.6955 0 12.6347 0L4 0C2.93913 0 1.92172 0.421427 1.17157 1.17157C0.421427 1.92172 0 2.93913 0 4L0 28C0 29.0609 0.421427 30.0783 1.17157 30.8284C1.92172 31.5786 2.93913 32 4 32H12.6347C13.6955 32 14.7129 31.5786 15.4631 30.8284C16.2132 30.0783 16.6347 29.0609 16.6347 28V20.8893H13.968V28Z" fill="black"/>
</g>
<defs>
<clipPath id="clip0_72_488">
<rect width="32" height="32" fill="white"/>
</clipPath>
</defs>
</svg>
