<svg width="40" height="40" viewBox="0 0 40 40" fill="none" xmlns="http://www.w3.org/2000/svg">
<g clip-path="url(#clip0_77_1353)">
<path d="M35 11.005V0H33.3333C33.3333 6.345 24.3083 6.66667 22.5 6.66667H4.16667C1.87 6.66667 0 8.53667 0 10.8333V20.8333C0 23.0567 1.75 24.8783 3.945 24.9933L9.41667 40H12.915C14.19 40 15.365 39.3617 16.06 38.2933C16.755 37.2233 16.86 35.89 16.3617 34.77L12.6967 25H22.5017C24.31 25 33.335 25.3217 33.335 31.6667H35.0017V21.005C37.7583 21.005 40.0017 18.7617 40.0017 16.005C40.0017 13.2483 37.7567 11.005 35 11.005ZM14.8183 35.4017C15.1067 36.05 15.0467 36.7917 14.6617 37.3867C14.275 37.98 13.6217 38.335 12.9133 38.335H10.5833L5.72167 25.0017H10.915L14.8183 35.4017ZM13.3333 23.335H4.16667C2.78833 23.335 1.66667 22.2133 1.66667 20.835V10.835C1.66667 9.45667 2.78833 8.335 4.16667 8.335H13.3333V23.335ZM33.3333 27.0917C30.975 24.3883 26.505 23.335 22.5 23.335H15V8.33333H22.5C26.505 8.33333 30.975 7.28 33.3333 4.57667V27.0917ZM35 19.3383V12.6717C36.8383 12.6717 38.3333 14.1667 38.3333 16.005C38.3333 17.8433 36.8383 19.3383 35 19.3383Z" fill="black"/>
</g>
<defs>
<clipPath id="clip0_77_1353">
<rect width="40" height="40" fill="white"/>
</clipPath>
</defs>
</svg>
