<svg width="40" height="41" viewBox="0 0 40 41" fill="none" xmlns="http://www.w3.org/2000/svg">
<g clip-path="url(#clip0_77_1371)">
<path d="M0 19.0633H18.3333V0.72998H0V19.0633ZM1.66667 2.39665H16.6667V17.3966H1.66667V2.39665ZM5 14.0633H13.3333V5.72998H5V14.0633ZM6.66667 7.39665H11.6667V12.3966H6.66667V7.39665ZM21.6667 0.72998V19.0633H40V0.72998H21.6667ZM38.3333 17.3966H23.3333V2.39665H38.3333V17.3966ZM35 5.72998H26.6667V14.0633H35V5.72998ZM33.3333 12.3966H28.3333V7.39665H33.3333V12.3966ZM0 40.73H18.3333V22.3966H0V40.73ZM1.66667 24.0633H16.6667V39.0633H1.66667V24.0633ZM5 35.73H13.3333V27.3966H5V35.73ZM6.66667 29.0633H11.6667V34.0633H6.66667V29.0633ZM33.3333 27.3966H28.3333V22.3966H21.6667V29.0633H26.6667V34.0633H21.6667V40.73H28.3333V35.73H35V29.0633H40V22.3966H33.3333V27.3966ZM23.3333 27.3966V24.0633H26.6667V27.3966H23.3333ZM26.6667 39.0633H23.3333V35.73H26.6667V39.0633ZM33.3333 34.0633H28.3333V29.0633H33.3333V34.0633ZM35 24.0633H38.3333V27.3966H35V24.0633Z" fill="black"/>
</g>
<defs>
<clipPath id="clip0_77_1371">
<rect width="40" height="40" fill="white" transform="translate(0 0.72998)"/>
</clipPath>
</defs>
</svg>
