<svg width="40" height="41" viewBox="0 0 40 41" fill="none" xmlns="http://www.w3.org/2000/svg">
<g clip-path="url(#clip0_77_1364)">
<path d="M8.33333 10.73C11.09 10.73 13.3333 8.48665 13.3333 5.72998C13.3333 2.97331 11.09 0.72998 8.33333 0.72998C5.57667 0.72998 3.33333 2.97331 3.33333 5.72998C3.33333 8.48665 5.57667 10.73 8.33333 10.73ZM8.33333 2.39665C10.1717 2.39665 11.6667 3.89165 11.6667 5.72998C11.6667 7.56831 10.1717 9.06331 8.33333 9.06331C6.495 9.06331 5 7.56831 5 5.72998C5 3.89165 6.495 2.39665 8.33333 2.39665ZM9.16667 15.73C5.03167 15.73 1.66667 19.095 1.66667 23.23C1.66667 23.69 1.29333 24.0633 0.833333 24.0633C0.373333 24.0633 0 23.69 0 23.23C0 18.1766 4.11167 14.0633 9.16667 14.0633C9.78333 14.0633 10.4 14.125 10.9983 14.245C11.45 14.3366 11.7417 14.775 11.65 15.2283C11.5583 15.6783 11.1117 15.9716 10.6683 15.88C10.1783 15.78 9.67333 15.73 9.16667 15.73ZM23.3333 10.73C26.09 10.73 28.3333 8.48665 28.3333 5.72998C28.3333 2.97331 26.09 0.72998 23.3333 0.72998C20.5767 0.72998 18.3333 2.97331 18.3333 5.72998C18.3333 8.48665 20.5767 10.73 23.3333 10.73ZM23.3333 2.39665C25.1717 2.39665 26.6667 3.89165 26.6667 5.72998C26.6667 7.56831 25.1717 9.06331 23.3333 9.06331C21.495 9.06331 20 7.56831 20 5.72998C20 3.89165 21.495 2.39665 23.3333 2.39665ZM22.5 14.0633C27.555 14.0633 31.6667 18.1766 31.6667 23.23C31.6667 23.69 31.2933 24.0633 30.8333 24.0633C30.3733 24.0633 30 23.69 30 23.23C30 19.095 26.635 15.73 22.5 15.73C21.9933 15.73 21.4883 15.78 20.9983 15.88C20.5533 15.9783 20.1083 15.6783 20.0167 15.2283C19.925 14.7766 20.2183 14.3366 20.6683 14.245C21.2667 14.125 21.8833 14.0633 22.5 14.0633ZM10.8333 22.3966C10.8333 25.1533 13.0767 27.3966 15.8333 27.3966C18.59 27.3966 20.8333 25.1533 20.8333 22.3966C20.8333 19.64 18.59 17.3966 15.8333 17.3966C13.0767 17.3966 10.8333 19.64 10.8333 22.3966ZM15.8333 19.0633C17.6717 19.0633 19.1667 20.5583 19.1667 22.3966C19.1667 24.235 17.6717 25.73 15.8333 25.73C13.995 25.73 12.5 24.235 12.5 22.3966C12.5 20.5583 13.995 19.0633 15.8333 19.0633ZM25 39.8966C25 40.3566 24.6267 40.73 24.1667 40.73C23.7067 40.73 23.3333 40.3566 23.3333 39.8966C23.3333 35.7616 19.9683 32.3966 15.8333 32.3966C11.6983 32.3966 8.33333 35.7616 8.33333 39.8966C8.33333 40.3566 7.96 40.73 7.5 40.73C7.04 40.73 6.66667 40.3566 6.66667 39.8966C6.66667 34.8433 10.7783 30.73 15.8333 30.73C20.8883 30.73 25 34.8433 25 39.8966ZM40 33.23C40 33.69 39.6267 34.0633 39.1667 34.0633H33.3333V39.8966C33.3333 40.3566 32.96 40.73 32.5 40.73C32.04 40.73 31.6667 40.3566 31.6667 39.8966V34.0633H25.8333C25.3733 34.0633 25 33.69 25 33.23C25 32.77 25.3733 32.3966 25.8333 32.3966H31.6667V26.5633C31.6667 26.1033 32.04 25.73 32.5 25.73C32.96 25.73 33.3333 26.1033 33.3333 26.5633V32.3966H39.1667C39.6267 32.3966 40 32.77 40 33.23Z" fill="black"/>
</g>
<defs>
<clipPath id="clip0_77_1364">
<rect width="40" height="40" fill="white" transform="translate(0 0.72998)"/>
</clipPath>
</defs>
</svg>
